<?xml version="1.0" encoding="UTF-8"?>
<!DOCTYPE svg PUBLIC "-//W3C//DTD SVG 1.1//EN" "http://www.w3.org/Graphics/SVG/1.1/DTD/svg11.dtd">
<svg xmlns="http://www.w3.org/2000/svg" version="1.1" width="194px" height="184px" style="shape-rendering:geometricPrecision; text-rendering:geometricPrecision; image-rendering:optimizeQuality; fill-rule:evenodd; clip-rule:evenodd" xmlns:xlink="http://www.w3.org/1999/xlink">
<g><path style="opacity:1" fill="#f5f5f5" d="M -0.5,-0.5 C 37.1667,-0.5 74.8333,-0.5 112.5,-0.5C 112.5,-0.166667 112.5,0.166667 112.5,0.5C 92.2213,22.7814 71.5546,44.7814 50.5,66.5C 71.4894,67.4997 92.4894,67.833 113.5,67.5C 114.497,45.0061 114.831,22.3395 114.5,-0.5C 116.167,-0.5 117.833,-0.5 119.5,-0.5C 119.333,20.8359 119.5,42.1693 120,63.5C 142.062,41.9357 164.229,20.6023 186.5,-0.5C 188.833,-0.5 191.167,-0.5 193.5,-0.5C 193.5,60.8333 193.5,122.167 193.5,183.5C 167.167,183.5 140.833,183.5 114.5,183.5C 114.667,150.165 114.5,116.832 114,83.5C 113.59,84.9007 113.09,86.234 112.5,87.5C 102.803,115.424 92.8027,143.257 82.5,171C 82.6448,171.772 82.9781,172.439 83.5,173C 90.2173,176.02 96.5506,179.52 102.5,183.5C 68.1667,183.5 33.8333,183.5 -0.5,183.5C -0.5,133.833 -0.5,84.1667 -0.5,34.5C 1.83333,34.5 4.16667,34.5 6.5,34.5C 6.66602,29.1563 6.49935,23.8229 6,18.5C 5.28281,19.0442 4.78281,19.7109 4.5,20.5C 2.83333,21.8333 1.16667,23.1667 -0.5,24.5C -0.5,16.1667 -0.5,7.83333 -0.5,-0.5 Z"/></g>
<g><path style="opacity:1" fill="#838383" d="M 112.5,0.5 C 112.5,0.166667 112.5,-0.166667 112.5,-0.5C 113.167,-0.5 113.833,-0.5 114.5,-0.5C 114.831,22.3395 114.497,45.0061 113.5,67.5C 113.831,44.9938 113.497,22.6604 112.5,0.5 Z"/></g>
<g><path style="opacity:1" fill="#121212" d="M 119.5,-0.5 C 141.833,-0.5 164.167,-0.5 186.5,-0.5C 164.229,20.6023 142.062,41.9357 120,63.5C 119.5,42.1693 119.333,20.8359 119.5,-0.5 Z"/></g>
<g><path style="opacity:1" fill="#121212" d="M 112.5,0.5 C 113.497,22.6604 113.831,44.9938 113.5,67.5C 92.4894,67.833 71.4894,67.4997 50.5,66.5C 71.5546,44.7814 92.2213,22.7814 112.5,0.5 Z"/></g>
<g><path style="opacity:1" fill="#1e1e1e" d="M 184.5,8.5 C 187.258,9.37699 189.924,10.5437 192.5,12C 182.643,18.2524 172.643,23.9191 162.5,29C 170.03,22.3004 177.364,15.4671 184.5,8.5 Z"/></g>
<g><path style="opacity:1" fill="#545454" d="M 25.5,16.5 C 20.8333,16.5 16.1667,16.5 11.5,16.5C 11.5,33.5 11.5,50.5 11.5,67.5C 10.5033,50.3414 10.17,33.008 10.5,15.5C 15.6946,15.1795 20.6946,15.5128 25.5,16.5 Z"/></g>
<g><path style="opacity:1" fill="#111111" d="M 25.5,16.5 C 36.3295,28.1641 46.9962,39.9974 57.5,52C 52.5,57 47.5,62 42.5,67C 32.172,67.4998 21.8387,67.6665 11.5,67.5C 11.5,50.5 11.5,33.5 11.5,16.5C 16.1667,16.5 20.8333,16.5 25.5,16.5 Z"/></g>
<g><path style="opacity:1" fill="#adadad" d="M -0.5,34.5 C -0.5,34.1667 -0.5,33.8333 -0.5,33.5C 1.5,33.5 3.5,33.5 5.5,33.5C 5.81822,28.9677 5.48489,24.6344 4.5,20.5C 4.78281,19.7109 5.28281,19.0442 6,18.5C 6.49935,23.8229 6.66602,29.1563 6.5,34.5C 4.16667,34.5 1.83333,34.5 -0.5,34.5 Z"/></g>
<g><path style="opacity:1" fill="#161616" d="M 4.5,20.5 C 5.48489,24.6344 5.81822,28.9677 5.5,33.5C 3.5,33.5 1.5,33.5 -0.5,33.5C -0.5,30.5 -0.5,27.5 -0.5,24.5C 1.16667,23.1667 2.83333,21.8333 4.5,20.5 Z"/></g>
<g><path style="opacity:1" fill="#4a4a4a" d="M 112.5,73.5 C 80.329,73.1684 48.329,73.5018 16.5,74.5C 15.7109,74.2172 15.0442,73.7172 14.5,73C 47.3359,72.1692 80.0026,72.3359 112.5,73.5 Z"/></g>
<g><path style="opacity:1" fill="#121212" d="M 112.5,73.5 C 103.93,98.2218 94.5969,122.555 84.5,146.5C 61.4738,122.808 38.8071,98.808 16.5,74.5C 48.329,73.5018 80.329,73.1684 112.5,73.5 Z"/></g>
<g><path style="opacity:1" fill="#838383" d="M 114.5,183.5 C 114.167,183.5 113.833,183.5 113.5,183.5C 113.832,151.329 113.498,119.329 112.5,87.5C 113.09,86.234 113.59,84.9007 114,83.5C 114.5,116.832 114.667,150.165 114.5,183.5 Z"/></g>
<g><path style="opacity:1" fill="#121212" d="M 112.5,87.5 C 113.498,119.329 113.832,151.329 113.5,183.5C 109.833,183.5 106.167,183.5 102.5,183.5C 96.5506,179.52 90.2173,176.02 83.5,173C 82.9781,172.439 82.6448,171.772 82.5,171C 92.8027,143.257 102.803,115.424 112.5,87.5 Z"/></g>
</svg>
